<svg id="Layer_1" enable-background="new 0 0 256 256" height="512" viewBox="0 0 256 256" width="512" xmlns="http://www.w3.org/2000/svg"><g><g><path d="m185.46 3h-147.302c-2.209 0-4 1.791-4 4v25.134 186.64 25.311h155.302v-25.311-186.64-25.134c0-2.209-1.79-4-4-4z" fill="#e0ebfc"/></g><g><path d="m189.46 246.085h-155.302c-1.104 0-2-.896-2-2v-237.085c0-3.309 2.691-6 6-6h147.302c3.309 0 6 2.691 6 6v237.085c0 1.104-.896 2-2 2zm-153.302-4h151.302v-235.085c0-1.103-.897-2-2-2h-147.302c-1.103 0-2 .897-2 2z" fill="#3762cc"/></g><g><path d="m191.809 159.146h-160c-.552 0-1 .448-1 1v9.265 65.757 7.917c0 .552.448 1 1 1h160c.552 0 1-.448 1-1v-7.917-65.757-9.265c0-.552-.447-1-1-1z" fill="#f9a7a7"/></g><g><path d="m191.81 246.085h-160c-1.654 0-3-1.346-3-3v-82.938c0-1.654 1.346-3 3-3h160c1.654 0 3 1.346 3 3v82.938c0 1.654-1.346 3-3 3zm-159-4h158v-80.938h-158zm159-80.939h.01z" fill="#3762cc"/></g><g><g><circle cx="223.866" cy="32.763" fill="#6bdddd" r="20.949"/></g></g><g><path d="m231.334 19.752c-1.104 0-2 .896-2 2v6.469h-10.936v-6.469c0-1.104-.896-2-2-2s-2 .896-2 2v22.021c0 1.104.896 2 2 2s2-.896 2-2v-11.551h10.936v11.551c0 1.104.896 2 2 2s2-.896 2-2v-22.021c0-1.104-.896-2-2-2z" fill="#4671c6"/></g><g><g><path d="m223.866 55.712c-12.654 0-22.949-10.295-22.949-22.949s10.295-22.949 22.949-22.949 22.949 10.295 22.949 22.949-10.294 22.949-22.949 22.949zm0-41.899c-10.448 0-18.949 8.5-18.949 18.949s8.501 18.949 18.949 18.949 18.949-8.5 18.949-18.949-8.501-18.949-18.949-18.949z" fill="#3762cc"/></g></g><g><path d="m236.424 53.712h-25.117c-3.427 0-6.205 2.778-6.205 6.205v28.346 57.608 28.346c0 3.427 2.778 6.205 6.205 6.205h25.117c3.427 0 6.205-2.778 6.205-6.205v-28.346-57.607-28.347c.001-3.427-2.778-6.205-6.205-6.205z" fill="#6bdddd"/></g><g><path d="m236.424 182.423h-25.116c-4.524 0-8.205-3.681-8.205-8.205v-114.301c0-4.524 3.681-8.205 8.205-8.205h25.116c4.524 0 8.206 3.681 8.206 8.205v114.301c0 4.524-3.682 8.205-8.206 8.205zm-25.116-126.711c-2.318 0-4.205 1.886-4.205 4.205v114.301c0 2.319 1.887 4.205 4.205 4.205h25.116c2.319 0 4.206-1.886 4.206-4.205v-114.301c0-2.319-1.887-4.205-4.206-4.205z" fill="#3762cc"/></g><g><path d="m195.168 35.534h-166.717c-1.132 0-2.05-.918-2.05-2.05v-10.878c0-1.132.918-2.05 2.05-2.05h166.717c1.132 0 2.05.918 2.05 2.05v10.878c0 1.132-.918 2.05-2.05 2.05z" fill="#a4c9ff"/></g><g><path d="m195.168 37.534h-166.717c-2.233 0-4.05-1.816-4.05-4.049v-10.879c0-2.233 1.817-4.05 4.05-4.05h166.717c2.233 0 4.05 1.817 4.05 4.05v10.878c0 2.233-1.817 4.05-4.05 4.05zm-166.717-14.978-.05 10.928 166.767.049c.027 0 .05-.022.05-.049v-10.878z" fill="#3762cc"/></g><g><g><path d="m81.51 184.25h30.299v59.835h-30.299z" fill="#a4c9ff"/></g><g><path d="m111.809 184.25h30.299v59.835h-30.299z" fill="#a4c9ff"/></g></g><g><path d="m205.103 96.19h-15.643c-1.104 0-2-.896-2-2s.896-2 2-2h15.643c1.104 0 2 .896 2 2s-.896 2-2 2z" fill="#3762cc"/></g><g><path d="m205.103 129.136h-15.643c-1.104 0-2-.896-2-2s.896-2 2-2h15.643c1.104 0 2 .896 2 2s-.896 2-2 2z" fill="#3762cc"/></g><g><g><path d="m111.81 246.085h-30.3c-1.104 0-2-.896-2-2v-59.835c0-1.104.896-2 2-2h30.299c1.104 0 2 .896 2 2v59.835c.001 1.104-.895 2-1.999 2zm-28.3-4h26.299v-55.835h-26.299z" fill="#3762cc"/></g><g><path d="m142.108 246.085h-30.298c-1.104 0-2-.896-2-2v-59.835c0-1.104.896-2 2-2h30.299c1.104 0 2 .896 2 2v59.835c-.001 1.104-.896 2-2.001 2zm-28.298-4h26.299v-55.835h-26.299z" fill="#3762cc"/></g></g><g><path d="m172.599 184.25h-121.579c-.945 0-1.71-.766-1.71-1.71v-10.83c0-.945.766-1.71 1.71-1.71h121.58c.945 0 1.71.766 1.71 1.71v10.83c-.001.944-.766 1.71-1.711 1.71z" fill="#e0ebfc"/></g><g><path d="m67.304 85.747h-17.845c-1.078 0-1.951-.874-1.951-1.951v-31.82c0-1.078.874-1.951 1.951-1.951h17.844c1.078 0 1.951.874 1.951 1.951v31.82c.001 1.078-.873 1.951-1.95 1.951z" fill="#a4c9ff"/></g><g><path d="m67.304 144.025h-17.845c-1.078 0-1.951-.874-1.951-1.951v-31.82c0-1.078.874-1.951 1.951-1.951h17.844c1.078 0 1.951.874 1.951 1.951v31.82c.001 1.077-.873 1.951-1.95 1.951z" fill="#a4c9ff"/></g><g><path d="m102.922 85.747h-17.844c-1.078 0-1.951-.874-1.951-1.951v-31.82c0-1.078.874-1.951 1.951-1.951h17.844c1.078 0 1.951.874 1.951 1.951v31.82c.001 1.078-.873 1.951-1.951 1.951z" fill="#a4c9ff"/></g><g><path d="m102.922 144.025h-17.844c-1.078 0-1.951-.874-1.951-1.951v-31.82c0-1.078.874-1.951 1.951-1.951h17.844c1.078 0 1.951.874 1.951 1.951v31.82c.001 1.077-.873 1.951-1.951 1.951z" fill="#a4c9ff"/></g><g><path d="m138.541 85.747h-17.844c-1.078 0-1.951-.874-1.951-1.951v-31.82c0-1.078.874-1.951 1.951-1.951h17.844c1.078 0 1.951.874 1.951 1.951v31.82c0 1.078-.873 1.951-1.951 1.951z" fill="#a4c9ff"/></g><g><path d="m138.541 144.025h-17.844c-1.078 0-1.951-.874-1.951-1.951v-31.82c0-1.078.874-1.951 1.951-1.951h17.844c1.078 0 1.951.874 1.951 1.951v31.82c0 1.077-.873 1.951-1.951 1.951z" fill="#a4c9ff"/></g><g><path d="m174.16 85.747h-17.844c-1.078 0-1.951-.874-1.951-1.951v-31.82c0-1.078.874-1.951 1.951-1.951h17.844c1.078 0 1.951.874 1.951 1.951v31.82c0 1.078-.874 1.951-1.951 1.951z" fill="#a4c9ff"/></g><g><path d="m174.16 144.025h-17.844c-1.078 0-1.951-.874-1.951-1.951v-31.82c0-1.078.874-1.951 1.951-1.951h17.844c1.078 0 1.951.874 1.951 1.951v31.82c0 1.077-.874 1.951-1.951 1.951z" fill="#a4c9ff"/></g><g><path d="m142.108 184.25h22.451v59.835h-22.451z" fill="#a4c9ff"/></g><g><path d="m59.059 184.25h22.451v59.835h-22.451z" fill="#a4c9ff"/></g><g><path d="m164.56 246.085h-22.451c-1.104 0-2-.896-2-2v-59.835c0-1.104.896-2 2-2h22.451c1.104 0 2 .896 2 2v59.835c0 1.104-.896 2-2 2zm-20.452-4h18.451v-55.835h-18.451z" fill="#3762cc"/></g><g><path d="m81.51 246.085h-22.45c-1.104 0-2-.896-2-2v-59.835c0-1.104.896-2 2-2h22.45c1.104 0 2 .896 2 2v59.835c0 1.104-.895 2-2 2zm-20.45-4h18.45v-55.835h-18.45z" fill="#3762cc"/></g><g><path d="m210.209 253h-196.8c-1.229 0-2.225-.996-2.225-2.225v-10.528c0-1.229.996-2.225 2.225-2.225h196.8c1.229 0 2.225.996 2.225 2.225v10.528c0 1.229-.996 2.225-2.225 2.225z" fill="#4671c6"/></g><g><path d="m210.209 255h-196.799c-2.33 0-4.225-1.895-4.225-4.225v-10.528c0-2.33 1.896-4.225 4.225-4.225h196.799c2.329 0 4.225 1.895 4.225 4.225v10.528c0 2.33-1.896 4.225-4.225 4.225zm-196.799-14.978c-.124 0-.225.101-.225.225v10.528c0 .124.101.225.225.225h196.799c.124 0 .225-.101.225-.225v-10.528c0-.124-.101-.225-.225-.225z" fill="#3762cc"/></g><g><g><path d="m104.31 221.837c-1.104 0-2-.896-2-2v-4.917c0-1.104.896-2 2-2s2 .896 2 2v4.917c0 1.104-.896 2-2 2z" fill="#3762cc"/></g><g><path d="m119.31 221.837c-1.104 0-2-.896-2-2v-4.917c0-1.104.896-2 2-2s2 .896 2 2v4.917c0 1.104-.896 2-2 2z" fill="#3762cc"/></g></g><g><g><path d="m225.077 92.595 1.964 3.98c.223.453.655.766 1.154.839l4.392.638c1.258.183 1.76 1.728.85 2.615l-3.178 3.098c-.361.352-.526.86-.441 1.357l.75 4.374c.215 1.252-1.1 2.208-2.225 1.616l-3.928-2.065c-.447-.235-.98-.235-1.427 0l-3.928 2.065c-1.125.591-2.439-.364-2.225-1.616l.75-4.374c.085-.497-.08-1.005-.441-1.357l-3.178-3.098c-.91-.887-.408-2.432.85-2.615l4.392-.638c.499-.073.931-.386 1.154-.839l1.964-3.98c.563-1.14 2.188-1.14 2.751 0z" fill="#ffea92"/></g><g><path d="m225.077 63.555 1.964 3.98c.223.453.655.766 1.154.839l4.392.638c1.258.183 1.76 1.728.85 2.615l-3.178 3.098c-.361.352-.526.86-.441 1.357l.75 4.374c.215 1.252-1.1 2.208-2.225 1.616l-3.928-2.065c-.447-.235-.98-.235-1.427 0l-3.928 2.065c-1.125.591-2.439-.364-2.225-1.616l.75-4.374c.085-.497-.08-1.005-.441-1.357l-3.178-3.098c-.91-.887-.408-2.432.85-2.615l4.392-.638c.499-.073.931-.386 1.154-.839l1.964-3.98c.563-1.14 2.188-1.14 2.751 0z" fill="#ffea92"/></g><g><path d="m225.077 121.635 1.964 3.98c.223.453.655.766 1.154.839l4.392.638c1.258.183 1.76 1.728.85 2.615l-3.178 3.098c-.361.352-.526.86-.441 1.357l.75 4.374c.215 1.252-1.1 2.208-2.225 1.616l-3.928-2.065c-.447-.235-.98-.235-1.427 0l-3.928 2.065c-1.125.591-2.439-.364-2.225-1.616l.75-4.374c.085-.497-.08-1.005-.441-1.357l-3.178-3.098c-.91-.887-.408-2.432.85-2.615l4.392-.638c.499-.073.931-.386 1.154-.839l1.964-3.98c.563-1.139 2.188-1.139 2.751 0z" fill="#ffea92"/></g><g><path d="m225.077 150.676 1.964 3.98c.223.453.655.766 1.154.839l4.392.638c1.258.183 1.76 1.728.85 2.615l-3.178 3.098c-.361.352-.526.86-.441 1.357l.75 4.374c.215 1.252-1.1 2.208-2.225 1.616l-3.928-2.065c-.447-.235-.98-.235-1.427 0l-3.928 2.065c-1.125.591-2.439-.364-2.225-1.616l.75-4.374c.085-.497-.08-1.005-.441-1.357l-3.178-3.098c-.91-.887-.408-2.432.85-2.615l4.392-.638c.499-.073.931-.386 1.154-.839l1.964-3.98c.563-1.14 2.188-1.14 2.751 0z" fill="#ffea92"/></g></g><g><g><path d="m229.06 113.291c-.562 0-1.126-.135-1.647-.409l-3.71-1.951-3.711 1.951c-1.199.631-2.624.528-3.721-.269-1.097-.796-1.635-2.12-1.406-3.456l.709-4.131-3.003-2.927c-.97-.947-1.312-2.335-.893-3.623s1.511-2.209 2.852-2.403l4.149-.603 1.854-3.76c.601-1.215 1.814-1.969 3.169-1.969h.001c1.354 0 2.568.755 3.167 1.97l1.855 3.759 4.149.603c1.34.194 2.433 1.116 2.852 2.405.419 1.288.076 2.676-.894 3.622l-3.003 2.927.709 4.132c.229 1.335-.31 2.659-1.406 3.455-.618.449-1.343.677-2.072.677zm-5.359-6.421c.565 0 1.13.135 1.646.406l3.09 1.625-.591-3.442c-.195-1.147.185-2.316 1.018-3.127l2.5-2.437-3.456-.502c-1.152-.167-2.147-.891-2.661-1.935l-1.544-3.128-1.545 3.131c-.516 1.043-1.51 1.765-2.66 1.933l-3.457.502 2.501 2.438c.832.811 1.212 1.979 1.017 3.125l-.591 3.443 3.091-1.625c.513-.272 1.078-.407 1.642-.407zm8.599-6.84h.01zm-9.018-6.551s0 .001.001.001z" fill="#3762cc"/></g><g><path d="m229.06 84.25c-.562 0-1.126-.135-1.647-.409l-3.711-1.951-3.71 1.951c-1.199.631-2.624.528-3.721-.269-1.097-.796-1.635-2.12-1.406-3.456l.709-4.131-3.003-2.927c-.97-.946-1.312-2.333-.894-3.622.419-1.288 1.512-2.209 2.852-2.405l4.15-.603 1.854-3.759c.601-1.215 1.814-1.969 3.169-1.969h.001c1.354 0 2.567.755 3.166 1.969l1.856 3.759 4.149.603c1.341.195 2.434 1.117 2.852 2.406.418 1.288.075 2.675-.895 3.621l-3.002 2.926.709 4.132c.229 1.335-.31 2.659-1.406 3.455-.618.451-1.343.679-2.072.679zm-5.359-6.42c.565 0 1.13.135 1.646.406l3.09 1.625-.591-3.442c-.195-1.147.185-2.316 1.018-3.127l2.5-2.437-3.456-.502c-1.15-.166-2.146-.889-2.66-1.934l-1.545-3.129-1.545 3.131c-.517 1.044-1.512 1.766-2.661 1.933l-3.456.502 2.501 2.438c.832.811 1.212 1.98 1.017 3.126l-.591 3.443 3.091-1.625c.513-.273 1.078-.408 1.642-.408zm8.598-6.84h.01zm-9.017-6.552v.001s0 0 0-.001z" fill="#3762cc"/></g><g><path d="m229.06 142.331c-.562 0-1.126-.135-1.647-.409l-3.711-1.951-3.71 1.951c-1.199.631-2.624.528-3.721-.269-1.097-.796-1.635-2.12-1.406-3.456l.709-4.131-3.003-2.927c-.97-.946-1.312-2.333-.894-3.622.419-1.288 1.512-2.209 2.852-2.405l4.15-.603 1.854-3.76c.601-1.215 1.814-1.969 3.169-1.969h.001c1.354 0 2.567.755 3.166 1.969l1.856 3.76 4.148.603c1.342.195 2.435 1.117 2.853 2.406.418 1.288.075 2.675-.895 3.621l-3.002 2.926.709 4.132c.229 1.335-.31 2.659-1.406 3.455-.618.451-1.343.679-2.072.679zm-5.359-6.421c.565 0 1.13.135 1.646.406l3.09 1.625-.591-3.442c-.195-1.146.185-2.314 1.017-3.126l2.501-2.438-3.455-.502c-1.153-.167-2.148-.891-2.662-1.935l-1.544-3.128-1.545 3.131c-.516 1.043-1.51 1.765-2.66 1.933l-3.457.502 2.501 2.438c.832.813 1.212 1.981 1.017 3.126l-.591 3.443 3.091-1.625c.513-.273 1.078-.408 1.642-.408zm8.598-6.84h.01zm-9.017-6.551v.001s0 0 0-.001z" fill="#3762cc"/></g><g><path d="m229.06 171.372c-.562 0-1.126-.135-1.647-.409l-3.711-1.951-3.71 1.951c-1.199.631-2.624.528-3.721-.269-1.097-.796-1.635-2.12-1.406-3.456l.709-4.131-3.003-2.927c-.97-.947-1.312-2.335-.893-3.623s1.511-2.209 2.852-2.403l4.149-.603 1.854-3.76c.601-1.215 1.814-1.969 3.169-1.969h.001c1.354 0 2.568.755 3.167 1.97l1.855 3.759 4.149.603c1.34.194 2.433 1.116 2.852 2.405.419 1.288.076 2.676-.894 3.622l-3.003 2.927.709 4.132c.229 1.335-.31 2.659-1.406 3.455-.618.448-1.343.677-2.072.677zm-5.359-6.421c.565 0 1.13.135 1.646.406l3.09 1.625-.591-3.442c-.195-1.147.185-2.316 1.018-3.127l2.5-2.437-3.456-.502c-1.151-.166-2.146-.89-2.661-1.935l-1.544-3.128-1.545 3.131c-.517 1.044-1.511 1.766-2.661 1.933l-3.456.502 2.501 2.438c.832.811 1.212 1.979 1.017 3.125l-.591 3.443 3.091-1.625c.513-.272 1.078-.407 1.642-.407zm8.599-6.84h.01zm-9.018-6.551s0 .001.001.001z" fill="#3762cc"/></g></g><g><path d="m67.304 87.748h-17.845c-2.179 0-3.951-1.773-3.951-3.952v-31.819c0-2.179 1.772-3.952 3.951-3.952h17.845c2.179 0 3.951 1.773 3.951 3.952v31.819c0 2.179-1.773 3.952-3.951 3.952zm-.049-35.771-17.796.048.049 31.771 17.747-.048z" fill="#3762cc"/></g><g><path d="m67.304 146.025h-17.845c-2.179 0-3.951-1.772-3.951-3.951v-31.82c0-2.179 1.772-3.951 3.951-3.951h17.845c2.179 0 3.951 1.772 3.951 3.951v31.82c0 2.178-1.773 3.951-3.951 3.951zm-.049-35.771-17.796.049.049 31.771 17.747-.049z" fill="#3762cc"/></g><g><path d="m102.922 87.748h-17.844c-2.179 0-3.951-1.773-3.951-3.952v-31.819c0-2.179 1.772-3.952 3.951-3.952h17.845c2.179 0 3.951 1.773 3.951 3.952v31.819c0 2.179-1.773 3.952-3.952 3.952zm-.048-35.771-17.796.048.049 31.771 17.747-.048z" fill="#3762cc"/></g><g><path d="m102.922 146.025h-17.844c-2.179 0-3.951-1.772-3.951-3.951v-31.82c0-2.179 1.772-3.951 3.951-3.951h17.845c2.179 0 3.951 1.772 3.951 3.951v31.82c0 2.178-1.773 3.951-3.952 3.951zm-.048-35.771-17.796.049.049 31.771 17.747-.049z" fill="#3762cc"/></g><g><path d="m138.541 87.748h-17.845c-2.179 0-3.951-1.773-3.951-3.952v-31.819c0-2.179 1.772-3.952 3.951-3.952h17.845c2.179 0 3.951 1.773 3.951 3.952v31.819c0 2.179-1.772 3.952-3.951 3.952zm-.049-35.771-17.796.048.049 31.771 17.747-.048z" fill="#3762cc"/></g><g><path d="m138.541 146.025h-17.845c-2.179 0-3.951-1.772-3.951-3.951v-31.82c0-2.179 1.772-3.951 3.951-3.951h17.845c2.179 0 3.951 1.772 3.951 3.951v31.82c0 2.178-1.772 3.951-3.951 3.951zm-.049-35.771-17.796.049.049 31.771 17.747-.049z" fill="#3762cc"/></g><g><path d="m174.159 87.748h-17.844c-2.18 0-3.952-1.773-3.952-3.952v-31.819c0-2.179 1.772-3.952 3.952-3.952h17.844c2.18 0 3.952 1.773 3.952 3.952v31.819c0 2.179-1.772 3.952-3.952 3.952zm-.048-35.771-17.796.048.048 31.771 17.748-.048z" fill="#3762cc"/></g><g><path d="m174.159 146.025h-17.844c-2.18 0-3.952-1.772-3.952-3.951v-31.82c0-2.179 1.772-3.951 3.952-3.951h17.844c2.18 0 3.952 1.772 3.952 3.951v31.82c0 2.178-1.772 3.951-3.952 3.951zm-.048-35.771-17.796.049.048 31.771 17.748-.049z" fill="#3762cc"/></g><g><path d="m172.6 186.25h-121.58c-2.046 0-3.71-1.665-3.71-3.71v-10.83c0-2.046 1.664-3.71 3.71-3.71h121.58c2.046 0 3.71 1.665 3.71 3.71v10.829c0 2.046-1.664 3.711-3.71 3.711zm-121.29-4h121v-10.25h-121z" fill="#3762cc"/></g><g><g><path d="m55.004 75.733c-.339 0-.683-.086-.998-.269-.957-.552-1.284-1.775-.732-2.732l6.75-11.691c.552-.957 1.775-1.286 2.732-.732.957.552 1.284 1.775.732 2.732l-6.75 11.691c-.37.642-1.042 1.001-1.734 1.001z" fill="#e0ebfc"/></g></g><g><g><path d="m90.623 75.733c-.339 0-.683-.086-.998-.269-.957-.552-1.284-1.775-.732-2.732l6.75-11.691c.552-.957 1.775-1.286 2.732-.732.957.552 1.284 1.775.732 2.732l-6.75 11.691c-.37.642-1.042 1.001-1.734 1.001z" fill="#e0ebfc"/></g></g><g><g><path d="m126.242 75.733c-.339 0-.683-.086-.998-.269-.957-.552-1.284-1.775-.732-2.732l6.75-11.691c.552-.957 1.775-1.286 2.732-.732.957.552 1.284 1.775.732 2.732l-6.75 11.691c-.37.642-1.043 1.001-1.734 1.001z" fill="#e0ebfc"/></g></g><g><g><path d="m161.86 75.733c-.339 0-.683-.086-.998-.269-.957-.552-1.284-1.775-.732-2.732l6.75-11.691c.552-.957 1.775-1.286 2.732-.732.957.552 1.284 1.775.732 2.732l-6.75 11.691c-.37.642-1.042 1.001-1.734 1.001z" fill="#e0ebfc"/></g></g><g><g><path d="m55.004 134.01c-.339 0-.683-.086-.998-.269-.957-.552-1.284-1.775-.732-2.732l6.75-11.691c.552-.957 1.775-1.286 2.732-.732.957.552 1.284 1.775.732 2.732l-6.75 11.691c-.37.642-1.042 1.001-1.734 1.001z" fill="#e0ebfc"/></g></g><g><g><path d="m90.623 134.01c-.339 0-.683-.086-.998-.269-.957-.552-1.284-1.775-.732-2.732l6.75-11.691c.552-.957 1.775-1.286 2.732-.732.957.552 1.284 1.775.732 2.732l-6.75 11.691c-.37.642-1.042 1.001-1.734 1.001z" fill="#e0ebfc"/></g></g><g><g><path d="m126.242 134.01c-.339 0-.683-.086-.998-.269-.957-.552-1.284-1.775-.732-2.732l6.75-11.691c.552-.957 1.775-1.286 2.732-.732.957.552 1.284 1.775.732 2.732l-6.75 11.691c-.37.642-1.043 1.001-1.734 1.001z" fill="#e0ebfc"/></g></g><g><g><path d="m161.86 134.01c-.339 0-.683-.086-.998-.269-.957-.552-1.284-1.775-.732-2.732l6.75-11.691c.552-.957 1.775-1.286 2.732-.732.957.552 1.284 1.775.732 2.732l-6.75 11.691c-.37.642-1.042 1.001-1.734 1.001z" fill="#e0ebfc"/></g></g></g></svg>