<?xml version="1.0" encoding="UTF-8"?>
<svg xmlns="http://www.w3.org/2000/svg" viewBox="0 0 64 64" width="512" height="512"><g id="Layer_15" data-name="Layer 15"><path d="M12,36H8a1,1,0,0,0-1,1v4a1,1,0,0,0,1,1h4a1,1,0,0,0,1-1V37A1,1,0,0,0,12,36Zm-1,4H9V38h2Z"/><path d="M12,44H8a1,1,0,0,0-1,1v4a1,1,0,0,0,1,1h4a1,1,0,0,0,1-1V45A1,1,0,0,0,12,44Zm-1,4H9V46h2Z"/><path d="M12,52H8a1,1,0,0,0-1,1v4a1,1,0,0,0,1,1h4a1,1,0,0,0,1-1V53A1,1,0,0,0,12,52Zm-1,4H9V54h2Z"/><path d="M12,28H8a1,1,0,0,0-1,1v4a1,1,0,0,0,1,1h4a1,1,0,0,0,1-1V29A1,1,0,0,0,12,28Zm-1,4H9V30h2Z"/><path d="M12,20H8a1,1,0,0,0-1,1v4a1,1,0,0,0,1,1h4a1,1,0,0,0,1-1V21A1,1,0,0,0,12,20Zm-1,4H9V22h2Z"/><path d="M22,38h4a1,1,0,0,0,1-1V33a1,1,0,0,0-1-1H22a1,1,0,0,0-1,1v4A1,1,0,0,0,22,38Zm1-4h2v2H23Z"/><path d="M34,32H30a1,1,0,0,0-1,1v4a1,1,0,0,0,1,1h4a1,1,0,0,0,1-1V33A1,1,0,0,0,34,32Zm-1,4H31V34h2Z"/><path d="M38,32a1,1,0,0,0-1,1v4a1,1,0,0,0,1,1h4a1,1,0,0,0,1-1V33a1,1,0,0,0-1-1Zm3,4H39V34h2Z"/><path d="M26,46a1,1,0,0,0,1-1V41a1,1,0,0,0-1-1H22a1,1,0,0,0-1,1v4a1,1,0,0,0,1,1Zm-3-4h2v2H23Z"/><path d="M34,40H30a1,1,0,0,0-1,1v4a1,1,0,0,0,1,1h4a1,1,0,0,0,1-1V41A1,1,0,0,0,34,40Zm-1,4H31V42h2Z"/><path d="M42,40H38a1,1,0,0,0-1,1v4a1,1,0,0,0,1,1h4a1,1,0,0,0,1-1V41A1,1,0,0,0,42,40Zm-1,4H39V42h2Z"/><path d="M52,42h4a1,1,0,0,0,1-1V37a1,1,0,0,0-1-1H52a1,1,0,0,0-1,1v4A1,1,0,0,0,52,42Zm1-4h2v2H53Z"/><path d="M52,50h4a1,1,0,0,0,1-1V45a1,1,0,0,0-1-1H52a1,1,0,0,0-1,1v4A1,1,0,0,0,52,50Zm1-4h2v2H53Z"/><path d="M52,58h4a1,1,0,0,0,1-1V53a1,1,0,0,0-1-1H52a1,1,0,0,0-1,1v4A1,1,0,0,0,52,58Zm1-4h2v2H53Z"/><path d="M52,34h4a1,1,0,0,0,1-1V29a1,1,0,0,0-1-1H52a1,1,0,0,0-1,1v4A1,1,0,0,0,52,34Zm1-4h2v2H53Z"/><path d="M52,26h4a1,1,0,0,0,1-1V21a1,1,0,0,0-1-1H52a1,1,0,0,0-1,1v4A1,1,0,0,0,52,26Zm1-4h2v2H53Z"/><path d="M61,12H48V8h1a1,1,0,0,0,1-1V3a1,1,0,0,0-1-1H15a1,1,0,0,0-1,1V7a1,1,0,0,0,1,1h1v4H3a1,1,0,0,0-1,1V61a1,1,0,0,0,1,1H61a1,1,0,0,0,1-1V13A1,1,0,0,0,61,12ZM16,60H4V18H16Zm0-44H4V14H16ZM16,4H48V6H16ZM31,60H25V50h6Zm8,0H33V50h6Zm7,0H41V49a1,1,0,0,0-1-1H24a1,1,0,0,0-1,1V60H18V8H46Zm14,0H48V18H60Zm0-44H48V14H60Z"/><path d="M32,30A10,10,0,1,0,22,20,10.011,10.011,0,0,0,32,30Zm0-18a8,8,0,1,1-8,8A8.009,8.009,0,0,1,32,12Z"/><path d="M32,23c-1.221,0-2-.592-2-1a1,1,0,0,0-2,0c0,1.421,1.259,2.571,3,2.9V26a1,1,0,0,0,2,0V24.9c1.741-.327,3-1.477,3-2.9,0-1.682-1.757-3-4-3-1.221,0-2-.592-2-1s.779-1,2-1,2,.592,2,1a1,1,0,0,0,2,0c0-1.421-1.259-2.571-3-2.9V14a1,1,0,0,0-2,0v1.1c-1.741.327-3,1.477-3,2.9,0,1.682,1.757,3,4,3,1.221,0,2,.592,2,1S33.221,23,32,23Z"/></g></svg>
